<?xml version="1.0" encoding="utf-8"?>
<!-- Generator: Adobe Illustrator 15.0.0, SVG Export Plug-In . SVG Version: 6.00 Build 0)  -->
<!DOCTYPE svg PUBLIC "-//W3C//DTD SVG 1.1//EN" "http://www.w3.org/Graphics/SVG/1.1/DTD/svg11.dtd">
<svg version="1.1" xmlns="http://www.w3.org/2000/svg" xmlns:xlink="http://www.w3.org/1999/xlink" x="0px" y="0px" width="157.5px"
	 height="86.25px" viewBox="0 0 157.5 86.25" enable-background="new 0 0 157.5 86.25" xml:space="preserve">
<g id="original" display="none">
	
		<image display="inline" overflow="visible" width="5495" height="3087" xlink:href="../../../../../../../../Volumes/HardDrive/Users/nicholaspball/Desktop/scarey_logo_2_cropped.png"  transform="matrix(0.03 0 0 0.03 0 0)">
	</image>
	<path display="inline" d="M43.167,1.417C26.174,15.035,50.135-4.167,19.25,20.583c0,0-5.667,4.667-6.5,6.333
		c0,0-0.5,1.25,1.333,1.833c0,0-0.667,1,6.417,0.5c0,0,9.667-0.917,9.917-0.667s-0.25-0.25-0.25-0.25s3.083,0.25,5.417,1.917
		c0,0,1.083,1.083,0.333,3.5c0,0-5.896,6.417-7.99,6.583c0,0-3.927,3.333-4.26,3.333c0,0-9.25,5.749-10,5.833
		c0,0-1.667,1.751-1.75,2.334c0,0-0.167,1.25,3.5-0.75c0,0,0.724-0.15,2.667-2.667c0,0,19.917-12.917,19.667-15.5
		c0,0,1.917-2.417,0.75-4.583s-8.25-2.583-13.167-2.5c0,0-7.721,1.513-8.75-0.25c0,0-1.25-0.167,1.333-2.583L39.75,5.583
		c0,0,1.167-0.667,2.25-0.417c0,0,2.667-1,2.833-3.083L43.167,1.417z"/>
	<path display="inline" d="M46.25,38.583c-3.667,4.083-3.5,3.667-3.5,3.667s-0.584,2.083,1.75,0.875c0,0,2.834-3.125,2.834-3.458
		c0,0,0.208-0.917,0-1.375L46.25,38.583z"/>
	<path display="inline" d="M86.438,2.25c3,0.688,2.125,3.688,2.125,3.688c0.125,8.438-1.938,12.438-1.938,12.438
		c-1.688,2.5-2.312,1.188-2.312,1.188c-0.375-0.375,1-8.062,1-8.062c1-3.5-0.25-5.562-0.25-5.562c-2,0.188-2.637,1.688-2.637,1.688
		C78.038,11.688,73,26.818,73,26.818c-3.258,12.12,2.5,13.057,2.5,13.057c2.312,2.188,14.312-4.312,14.312-4.312
		C91.5,34.062,93,34.125,93,34.125c0.938-3.438,6.562-11.875,6.562-11.875c3.25-3.062,3.75-1.688,3.75-1.688
		c1.062,1.125,0.25,1.625,0.25,1.625c0.312,0.5,0.562,0.688,0.562,0.688c0.562,0.125-1.75,5.062-1.75,5.062
		c-2.75,9.062,0.562,7.375,0.562,7.375c5.25-2,5.875-8.494,5.875-8.494c0.188-4.057,3.75-5.568,3.75-5.568
		C113.5,20.938,111.5,28,111.5,28c0.25-0.375,5.312-6.875,5.312-6.875c3.312-2.5,4.188-1.812,4.188-1.812
		c0.188,1.375-1.188,1.938-1.188,1.938c-2.875,0.562-4.812,4.438-4.812,4.438c-3.25,5.375-3.812,9.875-3.812,9.875
		c0,1.062-2.438,3.25-2.438,3.25c-0.375,1.688-1.188,0.312-1.188,0.312c0.438-2.562,0.285-3.562,0.285-3.562
		c0.535-1.25-0.16-2.938-0.16-2.938s0.25,0.25,0.125,0.125s-3.625,3.688-3.625,3.688c-0.625,0.625-1.562,2.375-3.438,2.312
		c-0.088-0.003-0.174-0.014-0.257-0.031c-1.687-0.357-2.368-3.594-2.368-3.594c-2.625,4.375-4.188,5-4.188,5
		c-1.75,1.625-2.625,0.312-2.625,0.312c-0.812-2.938,1.062-5.25,1.062-5.25c-7.75,5.625-12.125,6.562-12.125,6.562
		c-7.312,2.75-9.438,0-9.438,0C68,37.312,69.625,31.562,69.625,31.562c0.438-4.562,3.75-11.188,3.75-11.188
		C76.25,14,81.5,5.938,81.5,5.938C82.311,4.665,86.438,2.25,86.438,2.25z M100.375,23.312c0,0-6.125,10.312-6.188,11.938
		S93.5,37.188,94.5,37.438c0,0,2.75-2.062,4.188-6.125c0,0,2.5-6.938,3.5-7.375c0,0,1.875-2.062,1-2.375
		C103.188,21.562,101.528,21.338,100.375,23.312z"/>
	<path display="inline" d="M124.938,20.312c0,0-4.75,5.5-6.625,8.875c0,0-0.5,1.062-0.688,2.438c0,0-1.375,1.062-1.125,2
		c0,0,0.188,0.812,1.438,0.438c0,0-0.438,4.188,3.5,5.188c0,0,3.5,1,8.938-4.438c0,0,1.375,2.375,2.5,2.625c0,0,1.688,2.5,2.5,2.875
		c0,0-12.688,19.938-13.562,22.125c0,0-5.748,11.25-5.343,15.125c0,0-0.782,7.312,1.155,8c0,0-1.25-9,1.75-14.5
		c0,0,7.375-17.125,13.938-25.062c0,0,3.25-4.312,3.5-5.25c0,0,2.75,0.625,5.438-2.938c0,0,1.125-0.562,1.188-0.75
		s0.062-0.188,0.062-0.188l0,0c0,0-0.688-0.812-1.75,0.562c0,0-2.5,2.688-3.812,1.625l7.375-10.875c0,0,11.312-16.688,11.562-16.688
		c0,0-0.875,0.25-4.375,3.938c0,0-15.062,23.562-15.625,23.188c0,0-4.188-3.25-3.5-9.688c0,0,0.125-5.5,4.188-8.938
		c0,0-0.188-0.812-1.312-0.562c0,0-5.625,5.555-5.812,10.059c0,0-0.688,2.066,0.312,3.816c0,0-4.375,4.938-7.875,2.938
		c0,0-2.652-1.938-1.857-5.188c0,0,5.982-6.125,6.607-9.812c0,0,1.062-0.25-0.5-1.938C127.125,19.312,125.408,19.758,124.938,20.312
		z"/>
	<path display="inline" fill="none" d="M121.5,28.75c0,0,2.625-5.562,3.312-5.875c0,0-1.291,4.478-2.188,4.938
		C122.625,27.812,121.812,29.125,121.5,28.75z"/>
</g>
<g id="trace_1_">
	<path fill="#444444" d="M43.25,2.047c-0.938-0.188-1.052,0.139-1.338,0.368C18.854,20.892,18.438,21.146,18.438,21.146
		s-5.667,4.667-6.5,6.333c0,0-0.646,1.314,1.328,1.955c0,0,0.402,0.247,6.469,0.3c0,0,9.517-0.581,9.87-0.588
		c0.239-0.005,0.802,0.01,0.802,0.01s2.484-0.484,4.365,1.656c0,0,1.25,1.729,0.333,3.5c0,0-5.729,5.141-7.99,6.583
		c0,0-3.86,2.968-4.333,3.245c0,0-9.094,5.359-9.927,5.922c0,0-1.667,1.751-1.75,2.334c0,0-0.167,1.25,3.5-0.75
		c0,0,0.599-0.396,2.786-2.553c0,0,19.109-13.302,19.734-15.656c0,0,1.792-2.646,0.562-4.542c-1.338-2.065-8.271-2.917-13.167-2.333
		c0,0-6.75,0.824-8.75-0.417c0,0-1.25-0.167,1.333-2.583L38.938,6.146c0,0,0.266-0.318,1.641-1.052c0,0,1.531-1.141,2.562-2.422
		L43.25,2.047z"/>
	<path fill="#444444" d="M46.188,38.583c-0.771,0.271-3.5,3.667-3.5,3.667s-0.584,2.083,1.75,0.875c0,0,2.834-3.125,2.834-3.458
		c0,0,0.083-0.917-0.354-1.104L46.188,38.583z"/>
	<path fill="#444444" d="M124.938,20.312c0,0-4.75,5.5-6.625,8.875c0,0-0.5,1.062-0.688,2.438c0,0-1.375,1.062-1.125,2
		c0,0,0.188,0.812,1.438,0.438c0,0-0.438,4.188,3.5,5.188c0,0,3.5,1,8.938-4.438c0,0,1.254,1.638,2.396,2.792
		c0,0,1.792,2.333,2.604,2.708c0,0-12.688,19.938-13.562,22.125c0,0-5.499,11.211-5.343,15.125c0,0-0.782,7.312,1.155,8
		c0,0-1.25-9,1.75-14.5c0,0,7.375-17.125,13.938-25.062c0,0,3.25-4.312,3.5-5.25c0,0,2.875,0.439,5.438-2.938
		c0,0,0.542-0.686,1.188-0.75c0.196-0.02,0.062-0.188,0.062-0.188l0,0c0,0-0.688-0.812-1.75,0.562c0,0-2.5,2.688-3.812,1.625
		l7.375-10.875c0,0,11.312-16.688,11.562-16.688c0,0-1.062,0.085-4.375,3.938c0,0-15.062,23.562-15.625,23.188
		c0,0-4.188-3.25-3.5-9.688c0,0,0.354-4.602,3.708-8.936c0,0,0.104-1.729-0.833-0.564c0,0-5.062,5.772-5.812,10.059
		c0,0-0.688,2.066,0.312,3.816c0,0-4.375,4.938-7.875,2.938c0,0-2.652-1.938-1.857-5.188c0,0,5.982-6.125,6.607-9.812
		c0,0,0.667-2.374-0.5-1.938C127.125,19.312,125.408,19.758,124.938,20.312z"/>
	<path fill="#444444" d="M102.375,27.938c-2.542,9.125,0.562,7.375,0.562,7.375c5.25-2,5.875-8.494,5.875-8.494
		c0.188-4.057,3.75-5.568,3.75-5.568C113.5,20.938,111.5,28,111.5,28c0.25-0.375,5.312-6.875,5.312-6.875
		c3.062-2.812,4.188-1.812,4.188-1.812c0.75,0.896-1.188,1.938-1.188,1.938c-2.771,1.083-4.812,4.438-4.812,4.438
		c-3.25,5.375-3.812,9.875-3.812,9.875c0,1.062-2.438,3.25-2.438,3.25c-0.958,1.25-1.188,0.312-1.188,0.312
		c0.208-2.646,0.521-3.604,0.521-3.604c0.375-1.646-0.396-2.896-0.396-2.896s0.25,0.25,0.125,0.125s-3.625,3.688-3.625,3.688
		c-0.625,0.625-1.562,2.375-3.438,2.312c-0.088-0.003-0.174-0.014-0.257-0.031c-1.687-0.357-2.368-3.594-2.368-3.594
		c-2.625,4.375-4.188,5-4.188,5c-1.75,1.625-2.625,0.312-2.625,0.312c-0.812-2.938,1.062-5.25,1.062-5.25
		c-7.75,5.625-12.125,6.562-12.125,6.562c-7.312,2.75-9.438,0-9.438,0C68,37.312,69.625,31.562,69.625,31.562
		c0.438-4.562,3.75-11.188,3.75-11.188C76.25,14,81.5,5.938,81.5,5.938c0.811-1.272,4.294-3.299,4.294-3.299
		c3.175-0.607,2.769,3.299,2.769,3.299c0.125,8.438-1.938,12.438-1.938,12.438c-1.688,2.5-2.312,1.188-2.312,1.188
		c-0.375-0.375,1-8.062,1-8.062c1-3.5-0.375-5.344-0.375-5.344c-1.781-0.438-2.656,1.375-2.656,1.375
		C79.125,11.281,73,26.818,73,26.818c-3.258,12.12,2.5,13.057,2.5,13.057c2.531,1.688,14.312-4.312,14.312-4.312
		C91.5,34.062,93,34.125,93,34.125c0.938-3.438,6.562-11.875,6.562-11.875c3.25-3.062,3.75-1.688,3.75-1.688
		c1.062,0.896,0.906,1.656,0.906,1.656 M100.375,23.312c0,0-5.767,10.367-6.188,11.938C93.719,37,93.25,37.875,94.5,37.438
		c0,0,2.75-2.062,4.188-6.125c0,0,2.542-6.458,3.5-7.375c0,0,1.875-2.062,1-2.375C103.188,21.562,101.528,21.338,100.375,23.312z"/>
	<path fill="#444444" d="M45.583,2.959"/>
</g>
</svg>
